<?xml version="1.0" standalone="no"?>
<!DOCTYPE svg PUBLIC "-//W3C//DTD SVG 20010904//EN"
 "http://www.w3.org/TR/2001/REC-SVG-20010904/DTD/svg10.dtd">
<svg version="1.0" xmlns="http://www.w3.org/2000/svg"
 width="256.000000pt" height="256.000000pt" viewBox="0 0 256.000000 256.000000"
 preserveAspectRatio="xMidYMid meet">

<g transform="translate(0.000000,256.000000) scale(0.100000,-0.100000)"
fill="#dc3545" stroke="none">
<path d="M1202 2179 c-314 -41 -562 -216 -681 -482 -89 -197 -109 -498 -51
-743 74 -318 304 -538 633 -610 97 -21 331 -29 449 -15 115 13 255 48 365 90
l82 32 3 257 c3 278 6 295 60 335 15 11 49 22 77 25 l51 5 0 63 0 64 -405 0
-405 0 0 -64 0 -63 57 -7 c81 -9 118 -30 143 -80 18 -39 20 -61 20 -263 l0
-220 -46 -7 c-87 -12 -247 -5 -315 12 -172 45 -287 172 -338 375 -58 224 -53
591 9 792 32 100 61 154 122 220 89 98 209 141 368 133 172 -9 264 -96 289
-273 5 -37 12 -70 16 -73 11 -11 146 18 193 42 83 42 122 99 122 176 0 53 -13
82 -56 130 -92 101 -308 161 -574 159 -69 -1 -153 -5 -188 -10z"/>
</g>
</svg>
